<svg width="97" height="88" viewBox="0 0 97 88" fill="none" xmlns="http://www.w3.org/2000/svg">
<path d="M9.40051 10L45.7038 77.087L87.2678 10.575L87.5995 10H9.40051ZM48.3578 10.7188L45.7512 14.9357H19.2583L31.6754 37.7932L28.5474 43.8789L10.5853 10.7188H48.3578ZM45.0403 40.2371L49.2583 48.623L46.6517 52.6482L41.5332 43.1601L41.4858 43.2081H35.4195L33.8081 40.285L45.0403 40.2371ZM55.9408 48.4313L48.3105 34.343H36.7465L30.2062 22.9382H35.8934L40.6327 31.372L46.7939 31.4678L38.2157 15.6545H42.1493L45.8934 22.9861H55.9408V33.5284L60.2062 41.4351L60.3484 41.3871L55.9408 48.4313ZM63.6185 22.9861H71.865L63.5711 36.2598L63.6185 22.9861ZM28.6422 44.0706L35.2773 44.5019L46.4147 65.0114L59.1635 44.5977L65.1825 44.5498L45.7512 75.6015L28.6422 44.0706ZM65.1825 44.5498L62.718 38.9912L63.5237 37.6974H63.5711V37.6015L77.7417 14.9357H51.2488L48.4526 10.7188H86.3673L65.1825 44.5498Z" fill="black"/>
</svg>
