<svg width="97" height="88" viewBox="0 0 97 88" fill="none" xmlns="http://www.w3.org/2000/svg">
<path d="M9.00952 10L45.3128 77.087L86.8768 10.575L87.2085 10H9.00952ZM47.9669 10.7188L45.3602 14.9357H18.8673L31.2844 37.7932L28.1564 43.8789L10.1944 10.7188H47.9669ZM44.6493 40.2371L48.8673 48.623L46.2607 52.6482L41.1422 43.1601L41.0948 43.2081H35.0285L33.4171 40.285L44.6493 40.2371ZM55.5498 48.4313L47.9195 34.343H36.3555L29.8152 22.9382H35.5024L40.2417 31.372L46.4029 31.4678L37.8247 15.6545H41.7583L45.5024 22.9861H55.5498V33.5284L59.8152 41.4351L59.9574 41.3871L55.5498 48.4313ZM63.2275 22.9861H71.474L63.1801 36.2598L63.2275 22.9861ZM28.2512 44.0706L34.8863 44.5019L46.0237 65.0114L58.7725 44.5977L64.7915 44.5498L45.3602 75.6015L28.2512 44.0706ZM64.7915 44.5498L62.327 38.9912L63.1327 37.6974H63.1801V37.6015L77.3507 14.9357H50.8579L48.0616 10.7188H85.9763L64.7915 44.5498Z" fill="white"/>
</svg>
